# AST/ASF file generated using VICON BodyLanguage
# -----------------------------------------------
:version 1.10
:name VICON
:units
  mass 1.0
  length 0.45
  angle deg
:documentation
   .ast/.asf automatically generated from VICON data using
   VICON BodyBuilder and BodyLanguage model FoxedUp or BRILLIANT.MOD
:root
   order TX TY TZ RX RY RZ
   axis XYZ
   position 0 0 0  
   orientation 0 0 0 
:bonedata
  begin
     id 1 
     name lhipjoint
     direction 0.541323 -0.757556 0.364798 
     length 2.47576 
     axis 0 0 0  XYZ
  end
  begin
     id 2 
     name lfemur
     direction 0.34202 -0.939693 0  
     length 7.46493  
     axis 0 0 20  XYZ
    dof rx ry rz
    limits (-160.0 20.0)
           (-70.0 70.0)
           (-60.0 70.0)
  end
  begin
     id 3 
     name ltibia
     direction 0.34202 -0.939693 0   
     length 7.73805   
     axis 0 0 20   XYZ
    dof rx
    limits (-10.0 170.0)
  end
  begin
     id 4 
     name lfoot
     direction 0.107174 -0.294458 0.949636   
     length 2.25864   
     axis -90 7.62852e-016 20   XYZ
    dof rx rz
    limits (-45.0 90.0)
           (-70.0 20.0)
  end
  begin
     id 5 
     name ltoes
     direction 1.53606e-011 -4.21934e-011 1   
     length 1.12451   
     axis -90 7.62852e-016 20   XYZ
    dof rx
    limits (-90.0 20.0)
  end
  begin
     id 6 
     name rhipjoint
     direction -0.524745 -0.766967 0.36933   
     length 2.44538  
     axis 0 0 0  XYZ 
  end
  begin
     id 7 
     name rfemur
     direction -0.34202 -0.939693 0   
     length 7.61604   
     axis 0 0 -20   XYZ
    dof rx ry rz
    limits (-160.0 20.0)
           (-70.0 70.0)
           (-70.0 60.0)
  end
  begin
     id 8 
     name rtibia
     direction -0.34202 -0.939693 0   
     length 7.61056   
     axis 0 0 -20   XYZ
    dof rx
    limits (-10.0 170.0)
 end
 begin
     id 9 
     name rfoot
     direction -0.12616 -0.346623 0.929482   
     length 2.46372  
     axis -90 -7.62852e-016 -20   XYZ
    dof rx rz
    limits (-45.0 90.0)
           (-20.0 70.0)
  end
  begin
     id 10 
     name rtoes
     direction -1.53531e-011 -4.22004e-011 1   
     length 1.21611   
     axis -90 -7.62852e-016 -20   XYZ
    dof rx
    limits (-90.0 20.0)
  end
  begin
     id 11 
     name lowerback
     direction -0.000778023 0.997293 -0.0735223   
     length 2.06139   
     axis 0 0 0   XYZ
    dof rx ry rz
    limits (-20.0 45.0)
           (-30.0 30.0)
           (-30.0 30.0)
  end
  begin
     id 12 
     name upperback
     direction 0.0222598 0.999722 -0.0078355   
     length 2.06383   
     axis 0 0 0   XYZ
    dof rx ry rz
    limits (-20.0 45.0)
           (-30.0 30.0)
           (-30.0 30.0)
  end
  begin
     id 13 
     name thorax
     direction 0.0219654 0.999405 0.0265994   
     length 2.07163   
     axis 0 0 0   XYZ
    dof rx ry rz
    limits (-20.0 45.0)
           (-30.0 30.0)
           (-30.0 30.0)
  end
  begin
     id 14 
     name lowerneck
     direction 0.0213282 0.988147 0.15202   
     length 1.75969   
     axis 0 0 0   XYZ
    dof rx ry rz
    limits (-20.0 45.0)
           (-30.0 30.0)
           (-30.0 30.0)
  end
  begin
     id 15 
     name upperneck
     direction -0.0546456 0.982624 -0.177379   
     length 1.79244   
     axis 0 0 0   XYZ
    dof rx ry rz
    limits (-20.0 45.0)
           (-30.0 30.0)
           (-30.0 30.0)
  end
  begin
     id 16
     name head
     direction -0.0199987 0.996855 -0.076686  
     length 1.80555  
     axis 0 0 0   XYZ
    dof rx ry rz
    limits (-20.0 45.0)
           (-30.0 30.0)
           (-30.0 30.0)
  end
  begin
     id 17 
     name lclavicle
     direction 0.929565 0.363219 -0.063096  
     length 3.55722  
     axis 0 0 0   XYZ
    dof ry rz
    limits (-20.0 10.0)
           (0.0 20.0)
  end
  begin
     id 18 
     name lhumerus
     direction 1 -4.48993e-011 -2.36203e-027   
     length 4.92785   
     axis 180 -30 -90   XYZ
    dof rx ry rz
    limits (-60.0 90.0)
           (-90.0 90.0)
           (-90.0 90.0)
  end
  begin
     id 19
     name lradius
     direction 1 -4.48947e-011 2.02997e-027   
     length 3.44052   
     axis 180 -30 -90   XYZ
    dof rx
    limits (-10.0 170.0)
  end
  begin
     id 20
     name lwrist
     direction 1 -4.48962e-011 1.45991e-027   
     length 1.72026   
     axis 1.49639e-024 90 90   XYZ
    dof ry
    limits (-180.0 0.0)
 end
  begin
     id 21 
     name lhand
     direction 1 -4.48984e-011 2.91906e-027   
     length 0.654326   
     axis -1.863e-015 90 90   XYZ
    dof rx rz
    limits (-90.0 90.0)
           (-45.0 45.0)
  end
  begin
     id 22 
     name lfingers
     direction 1 -4.48961e-011 5.83968e-027   
     length 0.527534   
     axis -3.72598e-015 90 90   XYZ
    dof rx
    limits (0.0 90.0)
  end
  begin
     id 23
     name lthumb
     direction 0.707107 -6.34963e-011 0.707107   
     length 0.757437   
     axis -90 45 -6.68868e-015   XYZ
    dof rx rz
    limits (-45.0 45.0)
           (-45.0 45.0)
  end
  begin
     id 24 
     name rclavicle
     direction -0.902944 0.422599 -0.0781198   
     length 3.54432  
     axis 0 0 0   XYZ 
    dof ry rz
    limits (-10.0 20.0)
           (-20.0 0.0)
  end
  begin
     id 25 
     name rhumerus
     direction -1 -4.48953e-011 -4.75835e-028  
     length 5.09181   
     axis 180 30 90   XYZ
    dof rx ry rz
    limits (-90.0 60.0)
           (-90.0 90.0)
           (-90.0 90.0)
  end
  begin
     id 26 
     name rradius
     direction -1 -4.48986e-011 -3.25889e-027   
     length 3.49865   
     axis 180 30 90   XYZ
    dof rx
    limits (-10.0 170.0)
  end
  begin
     id 27 
     name rwrist
     direction -1 -4.48963e-011 1.45989e-027   
     length 1.74933   
     axis 1.49639e-024 -90 -90   XYZ
    dof ry
    limits (-180.0 0.0)
  end
  begin
     id 28
     name rhand
     direction -1 -4.49003e-011 2.91844e-027   
     length 0.66641   
     axis -1.863e-015 -90 -90   XYZ
    dof rx rz
    limits (-90.0 90.0)
           (-45.0 45.0)
  end
  begin
     id 29
     name rfingers
     direction -1 -4.48973e-011 5.83886e-027   
     length 0.537277   
     axis -3.72598e-015 -90 -90   XYZ
    dof rx
    limits (0.0 90.0)
  end
  begin
     id 30
     name rthumb
     direction -0.707107 -6.34976e-011 0.707107   
     length 0.771425   
     axis -90 -45 6.68868e-015   XYZ
    dof rx rz
    limits (-45.0 45.0)
           (-45.0 45.0)
  end
:hierarchy
  begin
    root lhipjoint rhipjoint lowerback
    lhipjoint lfemur
    lfemur ltibia
    ltibia lfoot
    lfoot ltoes
    rhipjoint rfemur
    rfemur rtibia
    rtibia rfoot
    rfoot rtoes
    lowerback upperback
    upperback thorax
    thorax lowerneck lclavicle rclavicle
    lowerneck upperneck
    upperneck head
    lclavicle lhumerus
    lhumerus lradius
    lradius lwrist
    lwrist lhand lthumb
    lhand lfingers
    rclavicle rhumerus
    rhumerus rradius
    rradius rwrist
    rwrist rhand rthumb
    rhand rfingers
  end

#!OML:ASF H:\LiuWeirdWalks\Patient Classification 1\Patient 1\Session 1\male.ASF
:FULLY-SPECIFIED
:DEGREES
16
root -0.447998 16.2503 -23.953 10.7839 7.21732 -8.13212
lowerback 9.46142 2.39103 8.51731
upperback 0.310612 4.31811 4.21855
thorax -4.695 1.98683 -0.91508
lowerneck -21.0237 0.801343 5.2393
upperneck 1.17729 0.439095 -8.85356
head 3.71229 -0.261867 -3.58515
rclavicle -2.5842e-015 -2.70347e-014
rhumerus -33.272 1.65629 -88.7438
rradius 29.0628
rwrist -6.90912
rhand -18.8688 -4.86697
rfingers 7.12502
rthumb 7.43178 -34.7164
lclavicle -2.5842e-015 -2.70347e-014
lhumerus -40.0709 -7.75531 89.9978
lradius 53.6376
lwrist 12.2804
lhand -13.1734 -2.9399
lfingers 7.12502
lthumb 12.9261 26.6398
rfemur 14.8913 -0.538029 33.9245
rtibia 11.6609
rfoot -21.0128 -36.2273
rtoes -6.37431
lfemur -59.0814 -0.867357 -7.19908
ltibia 56.8598
lfoot -8.90398 6.20718
ltoes -13.7001
17
root -0.423232 16.2107 -23.7634 11.043 7.27233 -7.75706
lowerback 9.41114 2.71335 8.2105
upperback 0.183824 4.69611 3.82132
thorax -4.76123 2.17028 -1.20721
lowerneck -21.3214 0.627552 4.98393
upperneck 1.0869 0.236405 -8.52869
head 3.70895 -0.348448 -3.46066
rclavicle 1.78906e-015 -2.70347e-014
rhumerus -33.2453 2.77444 -89.6804
rradius 29.601
rwrist -7.63996
rhand -18.8027 -4.7693
rfingers 7.12502
rthumb 7.49557 -34.6165
lclavicle 1.78906e-015 -2.70347e-014
lhumerus -40.4525 -7.26786 89.4241
lradius 54.4707
lwrist 12.1547
lhand -13.355 -3.11528
lfingers 7.12502
lthumb 12.751 26.4754
rfemur 15.5092 -0.609643 33.5475
rtibia 11.3639
rfoot -20.6134 -36.2821
rtoes -7.07257
lfemur -59.2703 -0.735973 -7.81778
ltibia 57.9333
lfoot -9.06907 5.97648
ltoes -12.2693
18
root -0.397211 16.1748 -23.5682 11.2711 7.30765 -7.36952
lowerback 9.34738 3.03183 7.90539
upperback 0.072818 5.06495 3.40528
thorax -4.80029 2.35055 -1.5163
lowerneck -21.6166 0.44356 4.734
upperneck 0.972409 0.0187919 -8.19032
head 3.69756 -0.440611 -3.3342
rclavicle -7.53394e-014 -3.89618e-014
rhumerus -33.2428 3.94136 -90.6105
rradius 30.1682
rwrist -8.27452
rhand -18.8501 -4.48104
rfingers 7.12502
rthumb 7.44989 -34.3299
lclavicle -7.53394e-014 -3.89618e-014
lhumerus -40.7987 -6.7714 88.8021
lradius 55.3832
lwrist 12.0844
lhand -13.5079 -3.338
lfingers 7.12502
lthumb 12.6035 26.2618
rfemur 16.0641 -0.675184 33.1341
rtibia 11.2924
rfoot -20.1524 -36.2639
rtoes -7.80503
lfemur -59.342 -0.597562 -8.44674
ltibia 58.9757
lfoot -9.39337 5.83999
ltoes -10.7937
19
root -0.369636 16.1418 -23.368 11.4514 7.34562 -7.00896
lowerback 9.27608 3.33695 7.65553
upperback -0.0241422 5.41952 2.98035
thorax -4.81379 2.5238 -1.86072
lowerneck -21.9018 0.272592 4.50039
upperneck 0.900149 -0.182972 -7.82764
head 3.69962 -0.523131 -3.20172
rclavicle 5.34731e-014 5.40694e-014
rhumerus -33.2901 5.14995 -91.5381
rradius 30.795
rwrist -8.83908
rhand -19.0323 -4.01913
rfingers 7.12502
rthumb 7.27394 -33.8741
lclavicle 5.34731e-014 5.40694e-014
lhumerus -41.1026 -6.28261 88.1373
lradius 56.3455
lwrist 12.1198
lhand -13.68 -3.58164
lfingers 7.12502
lthumb 12.4376 26.0283
rfemur 16.5389 -0.747557 32.7276
rtibia 11.5018
rfoot -19.6418 -36.1598
rtoes -8.56059
lfemur -59.3057 -0.468653 -9.03431
ltibia 59.9914
lfoot -9.87567 5.8022
ltoes -9.44346
20
root -0.340097 16.1116 -23.163 11.5739 7.40926 -6.7015
lowerback 9.19899 3.62339 7.49734
upperback -0.111363 5.75797 2.55726
thorax -4.8042 2.68819 -2.24903
lowerneck -22.045 0.0981148 4.29532
upperneck 0.742741 -0.394968 -7.47043
head 3.65515 -0.606759 -3.07447
rclavicle 5.68524e-014 1.43125e-014
rhumerus -33.4032 6.38619 -92.4565
rradius 31.4868
rwrist -9.2845
rhand -19.1764 -3.585
rfingers 7.12502
rthumb 7.13486 -33.4447
lclavicle 5.68524e-014 1.43125e-014
lhumerus -41.3519 -5.81261 87.4458
lradius 57.3245
lwrist 12.307
lhand -13.8657 -3.87531
lfingers 7.12502
lthumb 12.2586 25.7454
rfemur 16.9172 -0.854051 32.3525
rtibia 12.0221
rfoot -19.0764 -35.9659
rtoes -9.34846
lfemur -59.1672 -0.368257 -9.54832
ltibia 60.9679
lfoot -10.4828 5.84139
ltoes -8.4948
21
root -0.308939 16.0851 -22.9544 11.6394 7.4964 -6.45239
lowerback 9.12647 3.89039 7.42268
upperback -0.193102 6.08053 2.14804
thorax -4.78277 2.84362 -2.66528
lowerneck -22.1332 -0.0734033 4.10236
upperneck 0.637369 -0.602018 -7.10101
head 3.62032 -0.686707 -2.94476
rclavicle 8.34896e-015 -7.95139e-016
rhumerus -33.5817 7.67318 -93.357
rradius 32.2532
rwrist -9.67789
rhand -19.2375 -3.26445
rfingers 7.12502
rthumb 7.07585 -33.1262
lclavicle 8.34896e-015 -7.95139e-016
lhumerus -41.5434 -5.34897 86.7475
lradius 58.2986
lwrist 12.632
lhand -14.1154 -4.12318
lfingers 7.12502
lthumb 12.0178 25.5118
rfemur 17.1815 -0.990717 32.0144
rtibia 12.8637
rfoot -18.4383 -35.6753
rtoes -10.1425
lfemur -58.924 -0.29659 -9.98009
ltibia 61.8721
lfoot -11.1826 5.91721
ltoes -8.00281
22
root -0.277297 16.0641 -22.7423 11.6429 7.60875 -6.23628
lowerback 9.05851 4.1383 7.38311
upperback -0.264209 6.38254 1.75895
thorax -4.74953 2.98923 -3.07603
lowerneck -22.0499 -0.247659 3.93156
upperneck 0.451024 -0.81568 -6.74918
head 3.53668 -0.767346 -2.82219
rclavicle 2.22639e-014 4.77083e-015
rhumerus -33.8427 9.00027 -94.2231
rradius 33.1351
rwrist -10.0831
rhand -19.186 -3.07835
rfingers 7.12502
rthumb 7.12565 -32.9384
lclavicle 2.22639e-014 4.77083e-015
lhumerus -41.6557 -4.8861 86.0662
lradius 59.2273
lwrist 13.1118
lhand -14.4419 -4.35141
lfingers 7.12502
lthumb 11.703 25.3017
rfemur 17.3322 -1.16599 31.6944
rtibia 14.024
rfoot -17.6983 -35.2982
rtoes -10.9588
lfemur -58.5489 -0.256876 -10.36
ltibia 62.6674
lfoot -11.9686 5.9979
ltoes -7.97981
23
root -0.245819 16.0507 -22.5262 11.5777 7.74683 -6.02303
lowerback 9.00961 4.3669 7.33285
upperback -0.326969 6.66047 1.39086
thorax -4.72072 3.12369 -3.4569
lowerneck -21.8968 -0.433277 3.78128
upperneck 0.287497 -1.04536 -6.4145
head 3.4506 -0.856555 -2.70905
rclavicle 5.94366e-014 -2.38542e-015
rhumerus -34.1781 10.339 -95.0361
rradius 34.1238
rwrist -10.5062
rhand -19.0364 -2.97815
rfingers 7.12502
rthumb 7.26998 -32.8333
lclavicle 5.94366e-014 -2.38542e-015
lhumerus -41.697 -4.40833 85.4166
lradius 60.088
lwrist 13.659
lhand -14.8373 -4.50957
lfingers 7.12502
lthumb 11.3216 25.1648
rfemur 17.3754 -1.40928 31.3556
rtibia 15.4877
rfoot -16.7978 -34.8277
rtoes -11.8291
lfemur -58.0019 -0.24611 -10.7285
ltibia 63.318
lfoot -12.8137 6.09263
ltoes -8.45995
24
root -0.215681 16.0475 -22.3073 11.4686 7.90012 -5.79164
lowerback 8.97078 4.58186 7.21713
upperback -0.384777 6.91589 1.0519
thorax -4.70286 3.24885 -3.7697
lowerneck -21.6895 -0.621835 3.63322
upperneck 0.128353 -1.27677 -6.09444
head 3.3594 -0.947398 -2.60028
rclavicle -6.77856e-014 3.57812e-015
rhumerus -34.5625 11.6727 -95.7674
rradius 35.1968
rwrist -10.955
rhand -18.8858 -2.85062
rfingers 7.12502
rthumb 7.41541 -32.7007
lclavicle -6.77856e-014 3.57812e-015
lhumerus -41.6592 -3.88169 84.8179
lradius 60.847
lwrist 14.1555
lhand -15.316 -4.5883
lfingers 7.12502
lthumb 10.86 25.1109
rfemur 17.2878 -1.72722 30.9747
rtibia 17.2183
rfoot -15.6879 -34.2544
rtoes -12.7434
lfemur -57.2811 -0.240273 -11.1146
ltibia 63.7935
lfoot -13.6888 6.21449
ltoes -9.29805
25
root -0.186879 16.0563 -22.0852 11.3294 8.07795 -5.52533
lowerback 8.91968 4.77435 7.01612
upperback -0.443575 7.1334 0.742312
thorax -4.69531 3.35751 -4.00039
lowerneck -21.4665 -0.811986 3.50824
upperneck 0.011374 -1.51263 -5.80006
head 3.27993 -1.04273 -2.50363
rclavicle 5.57591e-014 3.22031e-014
rhumerus -34.9976 12.9436 -96.4021
rradius 36.3432
rwrist -11.4072
rhand -18.7392 -2.67348
rfingers 7.12502
rthumb 7.55691 -32.5185
lclavicle 5.57591e-014 3.22031e-014
lhumerus -41.5355 -3.27072 84.2714
lradius 61.4497
lwrist 14.5366
lhand -15.8322 -4.62575
lfingers 7.12502
lthumb 10.362 25.0989
rfemur 17.0635 -2.16261 30.5226
rtibia 19.1757
rfoot -14.335 -33.5606
rtoes -13.6406
lfemur -56.3785 -0.235593 -11.5415
ltibia 64.0702
lfoot -14.5755 6.36153
ltoes -10.2459
